<svg width="57" height="30" viewBox="0 0 57 30" fill="none" xmlns="http://www.w3.org/2000/svg">
<path d="M0.200012 14.7999C0.200012 11.9999 0.760012 9.50657 1.88001 7.3199C3.02668 5.13324 4.65335 3.4399 6.76001 2.2399C8.86668 1.01324 11.3467 0.399902 14.2 0.399902C16.6533 0.399902 18.84 0.866569 20.76 1.7999C22.7067 2.70657 24.28 3.9999 25.48 5.6799C26.7067 7.3599 27.52 9.3199 27.92 11.5599H18.56C18.1333 10.6266 17.52 9.90657 16.72 9.3999C15.9467 8.86657 15.0533 8.5999 14.04 8.5999C12.5467 8.5999 11.36 9.1599 10.48 10.2799C9.62668 11.3999 9.20001 12.9066 9.20001 14.7999C9.20001 16.6932 9.62668 18.1999 10.48 19.3199C11.36 20.4399 12.5467 20.9999 14.04 20.9999C15.0533 20.9999 15.9467 20.7466 16.72 20.2399C17.52 19.7066 18.1333 18.9732 18.56 18.0399H27.92C27.52 20.2799 26.7067 22.2399 25.48 23.9199C24.28 25.5999 22.7067 26.9066 20.76 27.8399C18.84 28.7466 16.6533 29.1999 14.2 29.1999C11.3467 29.1999 8.86668 28.5999 6.76001 27.3999C4.65335 26.1732 3.02668 24.4666 1.88001 22.2799C0.760012 20.0932 0.200012 17.5999 0.200012 14.7999Z" fill="#2642F5"/>
<path d="M41.3172 0.679904C44.2772 0.679904 46.8639 1.2799 49.0772 2.4799C51.3172 3.6799 53.0372 5.34657 54.2372 7.4799C55.4372 9.61324 56.0372 12.0399 56.0372 14.7599C56.0372 17.4532 55.4372 19.8799 54.2372 22.0399C53.0372 24.1999 51.3172 25.9066 49.0772 27.1599C46.8639 28.3866 44.2772 28.9999 41.3172 28.9999H29.5172V0.679904H41.3172ZM40.5172 21.0799C42.5172 21.0799 44.1039 20.5332 45.2772 19.4399C46.4505 18.3466 47.0372 16.7866 47.0372 14.7599C47.0372 12.7332 46.4505 11.1732 45.2772 10.0799C44.1039 8.98657 42.5172 8.4399 40.5172 8.4399H38.3972V21.0799H40.5172Z" fill="#2642F5"/>
</svg>
